<?xml version="1.0" encoding="UTF-8"?>
<svg width="256" height="256" viewBox="0 0 256 256" version="1.1" xmlns="http://www.w3.org/2000/svg" xmlns:xlink="http://www.w3.org/1999/xlink">
    <title>logo</title>
    <g stroke="none" stroke-width="1" fill="none" fill-rule="evenodd">
        <g id="logo">
            <rect fill="#D8D8D8" opacity="0" x="0" y="0" width="256" height="256"></rect>
            <g transform="translate(9.000000, 0.000000)" fill="#0072E6">
                <polygon points="17.8014799 57.6415091 127.830541 0 172.104455 22.5200068 172.104455 48.1468553 127.830541 26.843388 40.0221817 71.8658656 40.0221817 146.86959 18.1257427 136.704611"></polygon>
                <polygon  points="17.8014799 169.94837 17.8014799 201.023459 129.465832 256 238 201.023459 238 55.1272151 203.081916 37.884626 203.081916 62.4283759 217.394577 69.8788926 217.394577 185.6853 129.465832 230.674769 38.4745253 187.657786 38.4745253 178.717413 18.4813329 170.215524"></polygon>
                <polygon  points="178.47763 6.71780577 178.47763 75.6180267 198.286725 85.6500961 198.286725 64.4969846 193.615849 63.3848141 193.615849 13.9363092"></polygon>
                <polygon  points="0 138.168435 0 153.512534 72.5115574 185.200199 72.5115574 170.979323"></polygon>
                <path d="M112.48641,148.979373 L93.5418862,109.288199 L108.45137,109.288199 L110.107656,119.533968 L120.313075,105.248587 C120.193231,97.3266428 117.584342,92.0797414 112.48641,89.5078833 C104.839512,85.6500961 86.3983354,82.5257138 77.0402498,98.7721551 C76.9288267,98.8553164 88.7442134,124.717854 112.48641,176.359766 L144.887706,109.288199 L156.69791,109.288199 L145.653416,130.741411 L156.69791,130.741411 L177.431844,96.0225118 C178.467367,89.6159034 175.270592,86.1584314 167.841519,85.6500961 C160.412447,85.1417607 147.098854,85.1417607 127.90074,85.6500961 L133.559958,99.7667069 L126.632613,103.874975 L131.727306,110.558343 L112.48641,148.979373 Z"></path>
                <path d="M156.105436,128.228649 C168.014618,128.228649 177.668917,137.836045 177.668917,149.687369 C177.668917,161.538692 168.014618,171.146088 156.105436,171.146088 C144.196255,171.146088 134.541955,161.538692 134.541955,149.687369 C134.541955,137.836045 144.196255,128.228649 156.105436,128.228649 Z M156.105436,138.877337 C150.106074,138.877337 145.24263,143.717153 145.24263,149.687369 C145.24263,155.657584 150.106074,160.4974 156.105436,160.4974 C162.104799,160.4974 166.968243,155.657584 166.968243,149.687369 C166.968243,143.717153 162.104799,138.877337 156.105436,138.877337 Z" fill-rule="nonzero"></path>
            </g>
        </g>
    </g>
</svg>